# xmcd
#
# Track frame offsets: 
#        150
#        19208
#        36421
#        57947
#        72664
#        94035
#        110489
#        132425
#        154064
#        180660
#        200236
#        219714
#        236892
#        260182
#
# Disc length: 3688 seconds
#
# Revision: 0
# Processed by: cddbd v1.5.2PL0 Copyright (c) Steve Scherf et al.
# Submitted via: ExactAudioCopy v1.0b3
#
DISCID=e10e660e
DTITLE=Alexis P. Suter Band - Tow Sides
DYEAR=1900
DGENRE=Blues
TTITLE0=Free
TTITLE1=All Over Again
TTITLE2=Didn't It Rain
TTITLE3=Let It Flow
TTITLE4=Part Time Feeling
TTITLE5=Marathon
TTITLE6=Only I
TTITLE7=Rise
TTITLE8=Knockin' On Heaven's Door
TTITLE9=Just the Same
TTITLE10=John the Revelator
TTITLE11=Savior
TTITLE12=Whistling In the Dark
TTITLE13=Drama
EXTD=
EXTT0=
EXTT1=
EXTT2=
EXTT3=
EXTT4=
EXTT5=
EXTT6=
EXTT7=
EXTT8=
EXTT9=
EXTT10=
EXTT11=
EXTT12=
EXTT13=
PLAYORDER=
